# xmcd CD database file
#
# Track frame offsets:
#	150
#	7391
#	30504
#	52569
#	74450
#	94391
#	124422
#	141361
#	159676
#	180409
#	207451
#	229134
#
# Disc length: 3393 seconds
#
# Revision: 0
# Processed by: cddbd v1.5.2PL0 Copyright (c) Steve Scherf et al.
# Submitted via: CDex 1.70beta2
#
DISCID=ac0d3f0c
DTITLE=Alvin Sykes - Better Than Your Used to Be
DYEAR=2006
DGENRE=Blues
TTITLE0=Better Than Your User to Be
TTITLE1=Entertain Me
TTITLE2=I Can Do Bad All By Myself
TTITLE3=I Found A Love
TTITLE4=Hey Baby
TTITLE5=I'm Not Going Nowhere
TTITLE6=The Blues Doctor
TTITLE7=What Am I Gonna Do?
TTITLE8=That's No Good
TTITLE9=Do You Think?
TTITLE10=Let Me In
TTITLE11=We Will Contact You
EXTD=YEAR: 2006
EXTT0=
EXTT1=
EXTT2=
EXTT3=
EXTT4=
EXTT5=
EXTT6=
EXTT7=
EXTT8=
EXTT9=
EXTT10=
EXTT11=
PLAYORDER=
